<?xml version="1.0" standalone="no"?>
<!DOCTYPE svg PUBLIC "-//W3C//DTD SVG 20010904//EN"
 "http://www.w3.org/TR/2001/REC-SVG-20010904/DTD/svg10.dtd">
<svg version="1.0" xmlns="http://www.w3.org/2000/svg"
 width="700.000000pt" height="700.000000pt" viewBox="0 0 700.000000 700.000000"
 preserveAspectRatio="xMidYMid meet">
<metadata>
Created by potrace 1.14, written by Peter Selinger 2001-2017
</metadata>
<g transform="translate(0.000000,700.000000) scale(0.100000,-0.100000)"
fill="#000000" stroke="none">
<path d="M3469 5596 c-2 -2 -26 -7 -54 -10 -386 -51 -712 -344 -802 -721 -8
-33 -17 -69 -21 -80 -10 -31 -12 -2493 -2 -2555 43 -269 172 -480 379 -619
232 -157 569 -209 850 -130 294 83 490 285 571 589 22 81 23 107 27 518 l5
432 -264 -2 -263 -3 -1 -400 c-2 -338 -4 -407 -18 -443 -29 -80 -77 -133 -156
-174 -64 -33 -206 -33 -267 0 -66 35 -106 75 -139 139 l-29 58 0 1305 0 1305
28 57 c30 62 74 106 140 140 62 32 203 33 268 0 68 -33 124 -94 150 -165 22
-59 23 -70 23 -434 0 -205 2 -374 5 -374 3 -1 131 -2 284 -3 272 -1 277 -1
278 19 0 11 1 185 1 386 0 323 -3 418 -18 494 -2 11 -7 33 -9 49 -11 59 -70
193 -113 259 -93 142 -203 230 -387 308 -70 30 -190 51 -321 55 -77 2 -142 3
-145 0z"/>
<path d="M367 5512 c-16 -3 -17 -141 -17 -2013 0 -1105 3 -2009 8 -2009 12 -1
585 -1 618 -1 l30 1 0 828 c-1 455 0 838 2 852 l4 25 152 -1 c129 -2 160 -5
197 -22 74 -33 117 -84 149 -177 18 -53 19 -91 21 -568 1 -537 6 -613 49 -777
25 -93 68 -197 83 -203 7 -2 136 -3 287 -3 238 1 275 3 274 16 -1 8 -13 74
-27 145 -49 245 -50 266 -53 820 -2 505 -3 533 -22 587 -41 113 -139 230 -249
293 -26 16 -74 46 -106 67 l-58 40 47 33 c25 18 82 52 124 75 143 77 228 187
254 329 13 75 15 987 1 1081 -42 296 -270 514 -596 570 -60 11 -1124 21 -1172
12z m1015 -535 c52 -13 111 -73 132 -134 24 -70 23 -998 -1 -1068 -19 -58 -75
-116 -126 -132 -42 -13 -376 -18 -378 -6 -3 26 -4 1330 -1 1340 5 15 315 15
374 0z"/>
<path d="M5362 5510 c-18 -3 -32 -8 -31 -13 1 -7 -4 -57 -17 -157 -5 -37 -10
-74 -18 -125 -3 -16 -14 -100 -26 -185 -12 -85 -23 -166 -25 -180 -2 -14 -7
-45 -10 -69 -3 -23 -7 -55 -9 -70 -13 -80 -18 -110 -21 -146 -2 -22 -11 -85
-19 -140 -8 -55 -18 -120 -21 -145 -3 -25 -8 -56 -10 -70 -2 -14 -7 -50 -10
-80 -3 -30 -8 -62 -10 -70 -2 -8 -7 -40 -10 -70 -4 -30 -8 -57 -10 -60 -2 -3
-6 -39 -10 -80 -4 -41 -8 -77 -10 -80 -2 -3 -6 -30 -10 -60 -3 -30 -8 -67 -10
-81 -3 -14 -7 -43 -10 -65 -2 -21 -7 -50 -9 -64 -3 -14 -8 -47 -11 -75 -3 -27
-7 -61 -10 -75 -2 -14 -6 -41 -9 -60 -31 -228 -38 -279 -41 -301 -3 -14 -7
-43 -10 -65 -2 -21 -7 -57 -11 -79 -8 -56 -12 -82 -20 -150 -5 -33 -8 -62 -9
-65 -1 -3 -5 -30 -9 -60 -4 -30 -9 -66 -11 -80 -2 -14 -11 -78 -20 -142 -9
-65 -17 -125 -19 -135 -5 -26 -15 -100 -21 -158 -3 -27 -8 -61 -10 -75 -7 -38
-13 -80 -20 -130 -3 -25 -8 -56 -10 -70 -2 -14 -7 -47 -10 -75 -3 -27 -8 -62
-10 -76 -3 -14 -7 -43 -10 -65 -2 -21 -7 -57 -11 -79 l-6 -41 280 1 c154 0
283 2 285 5 5 5 10 59 23 250 3 52 7 111 9 130 2 19 7 96 11 170 3 74 8 137 9
140 3 4 621 5 647 1 4 -1 6 -18 6 -38 -1 -33 7 -166 17 -298 2 -22 7 -89 11
-150 4 -60 8 -121 9 -135 2 -14 3 -36 4 -50 l1 -26 328 0 329 0 -3 31 c-2 16
-9 64 -15 105 -6 41 -13 91 -15 110 -3 19 -7 46 -9 60 -3 14 -7 45 -10 70 -5
39 -23 171 -41 290 -2 19 -9 69 -15 110 -6 41 -12 86 -14 100 -8 55 -15 107
-20 150 -3 25 -10 72 -15 105 -10 66 -17 117 -25 185 -3 25 -8 52 -10 60 -2 8
-7 38 -10 65 -3 28 -12 97 -20 155 -9 58 -17 121 -20 140 -2 19 -14 98 -25
175 -11 77 -22 158 -25 180 -5 39 -13 94 -20 145 -2 14 -8 59 -14 100 -6 41
-13 91 -15 110 -15 102 -36 250 -40 285 -3 22 -15 105 -26 185 -11 80 -23 161
-25 180 -2 19 -7 51 -10 70 -3 19 -7 49 -10 65 -7 51 -35 258 -41 295 -14 101
-25 175 -29 218 -3 26 -8 58 -10 72 -5 27 -11 71 -20 135 -15 114 -15 115 -43
116 -151 3 -755 3 -780 -1z m452 -1140 c3 -3 8 -37 11 -75 3 -39 7 -92 10
-120 4 -49 10 -125 20 -247 12 -155 16 -207 20 -258 11 -117 20 -233 31 -360
3 -41 7 -95 9 -120 2 -25 7 -85 10 -135 3 -49 8 -101 10 -113 2 -13 7 -80 11
-148 l6 -124 -242 0 -243 0 6 103 c4 56 8 111 11 122 2 11 7 56 10 100 4 44 9
87 11 95 2 8 6 47 10 85 3 39 8 86 10 105 2 19 7 60 10 90 3 30 7 71 10 90 2
19 9 82 15 140 6 58 13 121 15 140 3 19 7 60 10 90 7 75 13 124 30 275 8 72
17 159 20 194 3 35 7 67 9 70 5 8 162 8 170 1z"/>
</g>
</svg>
